<svg width="843" height="190" viewBox="0 0 843 190" fill="none" xmlns="http://www.w3.org/2000/svg">
<path d="M0.184372 186.205V36.7608H25.5579V64.5318C28.7545 54.409 34.0823 46.7503 41.5412 41.5557C49.1332 36.228 57.9907 33.5641 68.1134 33.5641C78.2362 33.5641 87.027 36.0282 94.4859 40.9564C102.078 45.7514 107.938 52.3445 112.068 60.7357C116.33 69.127 118.461 78.5837 118.461 89.1061V93.7013C118.461 104.224 116.463 113.747 112.467 122.271C108.471 130.796 102.744 137.522 95.285 142.45C87.8262 147.379 78.769 149.843 68.1134 149.843C60.6545 149.843 53.795 148.444 47.5349 145.647C41.2748 142.85 36.1468 138.588 32.151 132.86V186.205H0.184372ZM59.1228 123.071C67.2477 123.071 73.7742 120.14 78.7024 114.28C83.7637 108.419 86.2944 100.761 86.2944 91.3038C86.2944 81.9802 83.7637 74.4547 78.7024 68.7274C73.7742 63 67.2477 60.1363 59.1228 60.1363C54.1946 60.1363 49.5994 61.2685 45.3372 63.5328C41.2082 65.7971 37.8117 69.0604 35.1479 73.3226C32.6172 77.5848 31.3518 82.6462 31.3518 88.5067V95.899C31.3518 101.626 32.6838 106.555 35.3476 110.684C38.1447 114.679 41.6744 117.743 45.9366 119.874C50.1988 122.005 54.5942 123.071 59.1228 123.071Z" fill="black"/>
<path d="M140.663 146.246V36.7608H166.036V73.9219C167.235 61.5349 171.031 52.0115 177.424 45.3518C183.951 38.6921 192.808 35.3622 203.996 35.3622H208.192V62.9334H200.2C191.276 62.9334 184.417 65.3309 179.622 70.1259C174.96 74.9209 172.629 81.7138 172.629 90.5046V146.246H140.663Z" fill="black"/>
<path d="M277.513 150.042C264.727 150.042 253.805 147.445 244.748 142.251C235.824 137.056 229.031 130.263 224.369 121.872C219.707 113.347 217.376 104.09 217.376 94.1009V89.5057C217.376 79.2497 219.774 69.8595 224.569 61.3351C229.497 52.6775 236.423 45.818 245.347 40.7566C254.404 35.562 265.126 32.9647 277.513 32.9647C289.9 32.9647 300.623 35.562 309.68 40.7566C318.737 45.818 325.663 52.6775 330.458 61.3351C335.386 69.8595 337.85 79.2497 337.85 89.5057V94.1009C337.85 104.09 335.453 113.347 330.658 121.872C325.996 130.263 319.203 137.056 310.279 142.251C301.355 147.445 290.433 150.042 277.513 150.042ZM277.513 123.071C286.704 123.071 293.697 120.14 298.492 114.28C303.42 108.286 305.884 100.827 305.884 91.9032C305.884 82.7128 303.353 75.1207 298.292 69.127C293.364 63 286.437 59.9366 277.513 59.9366C268.589 59.9366 261.663 63 256.735 69.127C251.807 75.1207 249.343 82.7128 249.343 91.9032C249.343 100.827 251.74 108.286 256.535 114.28C261.33 120.14 268.323 123.071 277.513 123.071Z" fill="black"/>
<path d="M413.504 150.042C400.718 150.042 389.796 147.445 380.738 142.251C371.814 137.056 365.022 130.263 360.36 121.872C355.698 113.347 353.367 104.09 353.367 94.1009V89.5057C353.367 79.2497 355.765 69.8595 360.559 61.3351C365.488 52.6775 372.414 45.818 381.338 40.7566C390.395 35.562 401.117 32.9647 413.504 32.9647C425.891 32.9647 436.613 35.562 445.671 40.7566C454.728 45.818 461.654 52.6775 466.449 61.3351C471.377 69.8595 473.841 79.2497 473.841 89.5057V94.1009C473.841 104.09 471.444 113.347 466.649 121.872C461.987 130.263 455.194 137.056 446.27 142.251C437.346 147.445 426.424 150.042 413.504 150.042ZM413.504 123.071C422.695 123.071 429.687 120.14 434.482 114.28C439.411 108.286 441.875 100.827 441.875 91.9032C441.875 82.7128 439.344 75.1207 434.283 69.127C429.354 63 422.428 59.9366 413.504 59.9366C404.58 59.9366 397.654 63 392.726 69.127C387.798 75.1207 385.334 82.7128 385.334 91.9032C385.334 100.827 387.731 108.286 392.526 114.28C397.321 120.14 404.314 123.071 413.504 123.071Z" fill="black"/>
<path d="M655.169 150.042C645.845 150.042 637.587 148.444 630.395 145.247C623.335 142.051 617.408 137.789 612.613 132.461C607.818 127 604.222 120.939 601.825 114.28C599.427 107.487 598.228 100.561 598.228 93.5015V89.5057C598.228 82.3132 599.427 75.3205 601.825 68.5276C604.222 61.7347 607.818 55.6743 612.613 50.3466C617.408 45.0188 623.202 40.8232 629.995 37.7597C636.921 34.5631 644.913 32.9647 653.97 32.9647C665.691 32.9647 675.548 35.6286 683.539 40.9564C691.664 46.151 697.858 53.0105 702.12 61.5349C706.382 70.0593 708.513 79.2497 708.513 89.1061V99.8948H628.397C629.463 107.354 632.126 113.281 636.389 117.676C640.784 121.938 647.044 124.07 655.169 124.07C660.896 124.07 665.625 123.004 669.354 120.873C673.217 118.609 675.814 115.745 677.146 112.282H706.515C704.118 123.47 698.324 132.594 689.133 139.653C680.076 146.579 668.755 150.042 655.169 150.042ZM653.97 58.9376C647.044 58.9376 641.383 60.9355 636.988 64.9313C632.726 68.794 629.995 74.3881 628.796 81.7138H677.945C676.88 74.3881 674.282 68.794 670.153 64.9313C666.157 60.9355 660.763 58.9376 653.97 58.9376Z" fill="black"/>
<path d="M729.696 146.246V0.398743H761.662V88.7065L801.421 36.7608H834.986L799.023 83.5119L842.778 146.246H806.815L772.251 95.0998H761.662V146.246H729.696Z" fill="black"/>
<path d="M513.593 143.849L480.028 36.7608H512.195L536.369 118.875H540.365L560.344 36.7608H590.713L560.145 155.037C557.88 163.562 554.817 170.355 550.954 175.416C547.225 180.477 542.163 184.074 535.77 186.205C529.51 188.469 521.585 189.601 511.995 189.601H492.415V162.43H515.192C520.253 162.43 524.182 161.431 526.979 159.433C529.91 157.435 532.041 153.838 533.373 148.644L534.372 143.849H513.593Z" fill="black"/>
<path fill-rule="evenodd" clip-rule="evenodd" d="M531.077 5.94852C531.077 2.88345 533.561 0.398743 536.626 0.398743C539.691 0.398743 542.176 2.88345 542.176 5.94849V27.4821C542.176 29.0146 540.934 30.2569 539.401 30.2569V39.1967C539.401 40.1 538.97 40.9025 538.301 41.4092L536.626 51.1653L534.951 41.4092C534.283 40.9025 533.852 40.1 533.852 39.1967V30.2569C532.319 30.2569 531.077 29.0146 531.077 27.4821V5.94852Z" fill="black"/>
</svg>
