<?xml version="1.0" standalone="no"?>
<!DOCTYPE svg PUBLIC "-//W3C//DTD SVG 20010904//EN"
 "http://www.w3.org/TR/2001/REC-SVG-20010904/DTD/svg10.dtd">
<svg version="1.0" xmlns="http://www.w3.org/2000/svg"
 width="318.000000pt" height="318.000000pt" viewBox="0 0 318.000000 318.000000"
 preserveAspectRatio="xMidYMid meet">
<metadata>
Created by potrace 1.14, written by Peter Selinger 2001-2017
</metadata>
<g transform="translate(0.000000,318.000000) scale(0.100000,-0.100000)"
fill="#000000" stroke="none">
<path d="M1569 3155 c-43 -23 -48 -51 -48 -250 0 -186 6 -235 33 -235 11 0 14
-19 14 -86 0 -48 4 -90 9 -93 5 -3 16 -42 24 -86 l15 -80 18 85 c10 47 20 124
23 173 3 61 8 87 17 87 30 0 36 44 34 246 -3 218 -4 222 -63 244 -34 13 -44
12 -76 -5z"/>
<path d="M673 2543 c11 -35 55 -180 80 -258 30 -96 109 -347 176 -562 27 -87
86 -275 131 -418 45 -143 100 -318 122 -390 22 -71 45 -134 52 -140 8 -6 79
-10 172 -9 87 1 162 0 166 -3 11 -6 -31 -142 -58 -188 -25 -44 -85 -92 -122
-100 -12 -2 -27 -7 -34 -11 -7 -4 -118 -8 -248 -9 l-235 -1 -1 -214 c0 -118 2
-221 4 -227 9 -27 512 -10 641 21 123 29 238 92 304 165 51 56 113 166 147
260 23 62 111 385 144 531 2 8 9 35 16 60 7 25 14 53 15 62 2 9 13 50 24 90
11 40 42 161 70 268 27 107 66 258 86 335 20 77 59 228 87 335 27 107 62 243
78 302 15 59 25 110 22 113 -3 3 -117 5 -253 5 l-249 0 -5 -22 c-3 -13 -16
-70 -31 -128 -14 -58 -27 -112 -29 -120 -24 -102 -114 -472 -145 -600 -22 -91
-56 -232 -76 -313 -46 -195 -46 -194 -81 -193 -26 2 -30 8 -54 81 -15 44 -52
168 -84 275 -31 107 -79 270 -106 362 -28 92 -52 175 -54 185 -3 10 -13 47
-24 83 -11 36 -41 138 -67 228 l-48 162 -269 0 c-252 0 -269 -1 -264 -17z"/>
</g>
</svg>
